<svg width="1864" height="1863" viewBox="0 0 1864 1863" fill="none" xmlns="http://www.w3.org/2000/svg">
<path d="M1863.05 931.092C1863.05 1445.32 1446.18 1862.19 931.95 1862.19C417.719 1862.19 0.852448 1445.32 0.852448 931.092C0.852448 416.861 417.719 -0.00512695 931.95 -0.00512695C1446.18 -0.00512695 1863.05 416.861 1863.05 931.092Z" fill="black"/>
<path d="M417.829 249.282C410.173 239.131 395.716 237.087 385.77 245.006C213.957 381.815 99.4818 578.348 65.5295 795.9C30.3923 1021.04 84.2545 1251.03 215.713 1437.15C347.171 1623.28 545.904 1750.94 769.839 1793.11C993.773 1835.28 1225.33 1788.64 1415.48 1663.07C1605.63 1537.51 1739.45 1342.87 1788.61 1120.36C1837.76 897.857 1798.4 664.956 1678.84 470.967C1559.29 276.979 1368.94 137.131 1148.08 81.0338C934.67 26.8277 708.971 54.9301 515.683 159.218C504.494 165.255 500.697 179.353 507.025 190.38C513.353 201.407 527.41 205.185 538.608 199.164C721.514 100.821 934.929 74.3964 1136.74 125.658C1346.01 178.811 1526.37 311.317 1639.65 495.123C1752.93 678.929 1790.23 899.605 1743.65 1110.43C1697.07 1321.25 1570.28 1505.68 1390.11 1624.65C1209.94 1743.63 990.538 1787.82 778.358 1747.86C566.179 1707.91 377.877 1586.95 253.319 1410.59C128.762 1234.24 77.7268 1016.33 111.02 803C143.127 597.266 251.236 411.372 413.504 281.777C423.439 273.843 425.485 259.432 417.829 249.282Z" fill="white"/>
</svg>
