<svg width="92" height="91" viewBox="0 0 92 91" fill="none" xmlns="http://www.w3.org/2000/svg">
<path d="M91.8525 45.4949C91.8525 70.6238 71.4814 90.9949 46.3524 90.9949C21.2235 90.9949 0.852448 70.6238 0.852448 45.4949C0.852448 20.3659 21.2235 -0.00512695 46.3524 -0.00512695C71.4814 -0.00512695 91.8525 20.3659 91.8525 45.4949Z" fill="black"/>
<path d="M21.2289 12.1768C20.8547 11.6808 20.1483 11.5809 19.6622 11.9679C11.2662 18.6533 5.67218 28.2573 4.01303 38.8884C2.29598 49.8906 4.92806 61.1291 11.352 70.2246C17.776 79.3201 27.4875 85.5586 38.4305 87.6192C49.3736 89.6798 60.689 87.4008 69.9811 81.2647C79.2732 75.1286 85.8126 65.6171 88.2148 54.7439C90.6169 43.8708 88.6932 32.4896 82.851 23.0099C77.0088 13.5303 67.7067 6.69634 56.914 3.95501C46.4854 1.30612 35.4561 2.6794 26.0107 7.77563C25.4639 8.07064 25.2784 8.7596 25.5876 9.29845C25.8969 9.8373 26.5838 10.0219 27.131 9.72769C36.0691 4.92196 46.498 3.63066 56.3602 6.13564C66.5863 8.73307 75.4001 15.2083 80.9357 24.1903C86.4712 33.1724 88.2939 43.9562 86.0179 54.2586C83.7418 64.561 77.5457 73.5732 68.7413 79.3872C59.9369 85.2012 49.2155 87.3606 38.8469 85.4081C28.4783 83.4557 19.2765 77.5447 13.1898 68.9267C7.103 60.3086 4.60907 49.66 6.23599 39.2354C7.80501 29.1818 13.0879 20.0977 21.0175 13.7647C21.503 13.377 21.603 12.6728 21.2289 12.1768Z" fill="white"/>
</svg>
